<svg xmlns="http://www.w3.org/2000/svg" width="49.729" height="43.697" viewBox="0 0 49.729 43.697">
  <g id="Group_1943" data-name="Group 1943" transform="translate(0 -1.26)">
    <g id="Group_9" data-name="Group 9" transform="translate(0 3.211)">
      <g id="Group_4" data-name="Group 4" transform="translate(7.377)">
        <path id="Path_1" data-name="Path 1" d="M326.777,470.317c0-.493,4.194,5.551,0,0S312.837,454.9,310,461.435,326.777,470.81,326.777,470.317Z" transform="translate(-309.719 -453.44)" fill="none" stroke="#707070" stroke-width="3"/>
        <path id="Path_2" data-name="Path 2" d="M17.058,11.042c0-.493,4.194,5.551,0,0S3.118-4.378.281,2.16,17.058,11.536,17.058,11.042Z" transform="translate(32.736 4.364) rotate(109)" fill="none" stroke="#707070" stroke-width="3"/>
      </g>
      <g id="Rectangle_5" data-name="Rectangle 5" transform="translate(4.817 21.995)" fill="#fff" stroke="#707070" stroke-width="2">
        <rect width="39.8" height="19.75" stroke="none"/>
        <rect x="1" y="1" width="37.8" height="17.75" fill="none"/>
      </g>
      <g id="Rectangle_4" data-name="Rectangle 4" transform="translate(0 14.765)" fill="#fff" stroke="#707070" stroke-width="2">
        <rect width="49.729" height="11.503" stroke="none"/>
        <rect x="1" y="1" width="47.729" height="9.503" fill="none"/>
      </g>
    </g>
  </g>
</svg>
