<svg xmlns="http://www.w3.org/2000/svg" width="71" height="71" viewBox="0 0 71 71">
  <g id="Group_1994" data-name="Group 1994" transform="translate(-6039 -672)">
    <g id="Group_1992" data-name="Group 1992" transform="translate(368 264)">
      <circle id="Ellipse_461" data-name="Ellipse 461" cx="35.5" cy="35.5" r="35.5" transform="translate(5671 408)" fill="#f2f2f2"/>
    </g>
    <path id="history-solid" d="M44.689,26.31A18.345,18.345,0,0,1,14.832,40.627a1.774,1.774,0,0,1-.136-2.634l.833-.833a1.778,1.778,0,0,1,2.359-.147,13.611,13.611,0,1,0-.869-20.586l3.754,3.754a1.184,1.184,0,0,1-.837,2.02H9.184A1.183,1.183,0,0,1,8,21.019V10.265a1.184,1.184,0,0,1,2.02-.837l3.652,3.652A18.344,18.344,0,0,1,44.689,26.31ZM31.307,32.137l.727-.934a1.775,1.775,0,0,0-.311-2.491L28.711,26.37V18.652a1.775,1.775,0,0,0-1.775-1.775H25.753a1.775,1.775,0,0,0-1.775,1.775V28.686l4.838,3.763A1.775,1.775,0,0,0,31.307,32.137Z" transform="translate(6048.5 681.5)" fill="#f3c10f" stroke="#1e1e1e" stroke-width="1"/>
  </g>
</svg>
