<svg xmlns="http://www.w3.org/2000/svg" width="128.52" height="93.188" viewBox="0 0 128.52 93.188">
  <g id="Group_6" data-name="Group 6" transform="translate(-7220.964 -1593)">
    <g id="lnr-users" transform="translate(7225.241 1593)">
      <path id="Path_6" data-name="Path 6" d="M83.652,49.268H15.318A9.33,9.33,0,0,1,6,39.949a24.74,24.74,0,0,1,5.74-14.381,32.685,32.685,0,0,1,13.219-9.455C31.613,13.38,39.869,12,49.485,12s17.866,1.385,24.525,4.112A32.685,32.685,0,0,1,87.23,25.568a24.689,24.689,0,0,1,5.74,14.381A9.33,9.33,0,0,1,83.652,49.268Zm-71.439-9.3a3.1,3.1,0,0,0,3.106,3.087H83.652a3.107,3.107,0,0,0,3.106-3.087A18.947,18.947,0,0,0,82.167,29.2c-6.051-7.187-17.35-10.983-32.682-10.983S22.853,22.015,16.8,29.2A18.962,18.962,0,0,0,12.212,39.968Z" transform="translate(31.273 43.914)" fill="#f3c10f"/>
      <path id="Path_7" data-name="Path 7" d="M33.849,52.7A24.849,24.849,0,1,1,58.7,27.849,24.874,24.874,0,0,1,33.849,52.7Zm0-43.485A18.636,18.636,0,1,0,52.485,27.849,18.659,18.659,0,0,0,33.849,9.212Z" transform="translate(46.909 -3)" fill="#f3c10f"/>
      <path id="Path_8" data-name="Path 8" d="M27.955,44.061H9.318A9.33,9.33,0,0,1,0,34.742,20.257,20.257,0,0,1,4.119,23.561a23.653,23.653,0,0,1,9.523-7.38C18.388,14.068,24.252,13,31.067,13c1.112,0,2.212.031,3.274.087a3.107,3.107,0,1,1-.329,6.206c-.95-.05-1.938-.075-2.938-.075C6.883,19.218,6.243,34,6.225,34.767a3.107,3.107,0,0,0,3.106,3.087H27.967a3.106,3.106,0,1,1,0,6.212Z" transform="translate(0 49.121)" fill="#f3c10f"/>
      <path id="Path_9" data-name="Path 9" d="M20.636,43.273A18.636,18.636,0,1,1,39.273,24.636,18.659,18.659,0,0,1,20.636,43.273Zm0-31.061A12.424,12.424,0,1,0,33.061,24.636,12.437,12.437,0,0,0,20.636,12.212Z" transform="translate(10.424 12.636)" fill="#f3c10f"/>
    </g>
    <g id="lnr-users-2" data-name="lnr-users" transform="translate(7220.964 1593)">
      <path id="Path_6-2" data-name="Path 6" d="M83.652,49.268H15.318A9.33,9.33,0,0,1,6,39.949a24.74,24.74,0,0,1,5.74-14.381,32.685,32.685,0,0,1,13.219-9.455C31.613,13.38,39.869,12,49.485,12s17.866,1.385,24.525,4.112A32.685,32.685,0,0,1,87.23,25.568a24.689,24.689,0,0,1,5.74,14.381A9.33,9.33,0,0,1,83.652,49.268Zm-71.439-9.3a3.1,3.1,0,0,0,3.106,3.087H83.652a3.107,3.107,0,0,0,3.106-3.087A18.947,18.947,0,0,0,82.167,29.2c-6.051-7.187-17.35-10.983-32.682-10.983S22.853,22.015,16.8,29.2A18.962,18.962,0,0,0,12.212,39.968Z" transform="translate(31.273 43.914)"/>
      <path id="Path_7-2" data-name="Path 7" d="M33.849,52.7A24.849,24.849,0,1,1,58.7,27.849,24.874,24.874,0,0,1,33.849,52.7Zm0-43.485A18.636,18.636,0,1,0,52.485,27.849,18.659,18.659,0,0,0,33.849,9.212Z" transform="translate(46.909 -3)"/>
      <path id="Path_8-2" data-name="Path 8" d="M27.955,44.061H9.318A9.33,9.33,0,0,1,0,34.742,20.257,20.257,0,0,1,4.119,23.561a23.653,23.653,0,0,1,9.523-7.38C18.388,14.068,24.252,13,31.067,13c1.112,0,2.212.031,3.274.087a3.107,3.107,0,1,1-.329,6.206c-.95-.05-1.938-.075-2.938-.075C6.883,19.218,6.243,34,6.225,34.767a3.107,3.107,0,0,0,3.106,3.087H27.967a3.106,3.106,0,1,1,0,6.212Z" transform="translate(0 49.121)"/>
      <path id="Path_9-2" data-name="Path 9" d="M20.636,43.273A18.636,18.636,0,1,1,39.273,24.636,18.659,18.659,0,0,1,20.636,43.273Zm0-31.061A12.424,12.424,0,1,0,33.061,24.636,12.437,12.437,0,0,0,20.636,12.212Z" transform="translate(10.424 12.636)"/>
    </g>
  </g>
</svg>
