<svg xmlns="http://www.w3.org/2000/svg" width="93.875" height="93.188" viewBox="0 0 93.875 93.188">
  <g id="Group_7" data-name="Group 7" transform="translate(-7056.482 -1593)">
    <g id="lnr-user" transform="translate(7056.482 1593)">
      <path id="Path_4" data-name="Path 4" d="M29.627,51.253A25.627,25.627,0,1,1,55.253,25.627,25.654,25.654,0,0,1,29.627,51.253Zm0-46.594A20.967,20.967,0,1,0,50.594,25.627,20.993,20.993,0,0,0,29.627,4.659Z" transform="translate(14.638)" fill="#f3c10f"/>
      <path id="Path_5" data-name="Path 5" d="M81.54,49.275H6.989A7,7,0,0,1,0,42.286,27.826,27.826,0,0,1,5.708,26.91,33.212,33.212,0,0,1,19.076,16.571C25.9,13.538,34.372,12,44.264,12s18.367,1.538,25.189,4.571A33.252,33.252,0,0,1,82.821,26.91a27.826,27.826,0,0,1,5.708,15.376A7,7,0,0,1,81.54,49.275ZM44.264,16.659c-16.247,0-28.236,4.44-34.671,12.841A23.67,23.67,0,0,0,4.659,42.3a2.329,2.329,0,0,0,2.33,2.32H81.54a2.331,2.331,0,0,0,2.33-2.33A23.585,23.585,0,0,0,78.935,29.5C72.5,21.1,60.507,16.659,44.264,16.659Z" transform="translate(0 43.913)" fill="#f3c10f"/>
    </g>
    <g id="lnr-user-2" data-name="lnr-user" transform="translate(7061.828 1593)">
      <path id="Path_4-2" data-name="Path 4" d="M29.627,51.253A25.627,25.627,0,1,1,55.253,25.627,25.654,25.654,0,0,1,29.627,51.253Zm0-46.594A20.967,20.967,0,1,0,50.594,25.627,20.993,20.993,0,0,0,29.627,4.659Z" transform="translate(14.638)"/>
      <path id="Path_5-2" data-name="Path 5" d="M81.54,49.275H6.989A7,7,0,0,1,0,42.286,27.826,27.826,0,0,1,5.708,26.91,33.212,33.212,0,0,1,19.076,16.571C25.9,13.538,34.372,12,44.264,12s18.367,1.538,25.189,4.571A33.252,33.252,0,0,1,82.821,26.91a27.826,27.826,0,0,1,5.708,15.376A7,7,0,0,1,81.54,49.275ZM44.264,16.659c-16.247,0-28.236,4.44-34.671,12.841A23.67,23.67,0,0,0,4.659,42.3a2.329,2.329,0,0,0,2.33,2.32H81.54a2.331,2.331,0,0,0,2.33-2.33A23.585,23.585,0,0,0,78.935,29.5C72.5,21.1,60.507,16.659,44.264,16.659Z" transform="translate(0 43.913)"/>
    </g>
  </g>
</svg>
