<svg xmlns="http://www.w3.org/2000/svg" width="106.982" height="93.188" viewBox="0 0 106.982 93.188">
  <g id="Group_8" data-name="Group 8" transform="translate(-6868 -1593)">
    <g id="lnr-heart-pulse" transform="translate(6868 1593)">
      <path id="Path_1" data-name="Path 1" d="M35.313,41.407a2.743,2.743,0,0,1-1.332-.345A150.667,150.667,0,0,1,4.55,18.686a2.74,2.74,0,0,1,3.859-3.892,148.45,148.45,0,0,0,26.9,20.7,148.74,148.74,0,0,0,26.9-20.7,2.74,2.74,0,1,1,3.859,3.892A150.845,150.845,0,0,1,36.645,41.062,2.743,2.743,0,0,1,35.313,41.407Z" transform="translate(16.762 51.781)" fill="#f3c10f"/>
      <path id="Path_2" data-name="Path 2" d="M7.011,51.335a2.739,2.739,0,0,1-2.483-1.573A44.553,44.553,0,0,1,0,30.779,28.81,28.81,0,0,1,28.779,2,27.694,27.694,0,0,1,44.845,7.668a30.27,30.27,0,0,1,7.23,7.45,30.27,30.27,0,0,1,7.23-7.45A27.694,27.694,0,0,1,75.373,2a28.81,28.81,0,0,1,28.779,28.779,44.553,44.553,0,0,1-4.528,18.983,2.74,2.74,0,0,1-4.961-2.33A39.133,39.133,0,0,0,98.67,30.784a23.327,23.327,0,0,0-23.3-23.3c-9.335,0-18.4,7.68-20.7,14.57a2.738,2.738,0,0,1-5.2,0c-2.3-6.89-11.363-14.57-20.7-14.57a23.327,23.327,0,0,0-23.3,23.3A39.133,39.133,0,0,0,9.489,47.432,2.747,2.747,0,0,1,7.011,51.34Z" transform="translate(0 -2)" fill="#f3c10f"/>
      <path id="Path_3" data-name="Path 3" d="M48.676,46.35h-.071c-1.107-.022-3.119-.6-4.128-4.2L37.806,18.393,33.382,36.367c-.866,3.525-2.878,4.265-4,4.385s-3.245-.148-4.873-3.4l-3.322-6.638a3,3,0,0,0-.417-.641c-.016.022-.038.049-.06.082-2.028,2.977-6.534,5.224-10.486,5.224H4.741a2.741,2.741,0,0,1,0-5.482h5.482a8.316,8.316,0,0,0,5.959-2.829,5.477,5.477,0,0,1,4.884-2.62,6.277,6.277,0,0,1,5.027,3.815l2.439,4.879L33.662,12.3c.866-3.508,2.642-4.27,3.98-4.292s3.136.685,4.117,4.166L48.8,37.255l6.457-19.778c1.124-3.442,3.19-4.034,4.32-4.084s3.234.373,4.643,3.711l3.969,9.423A6.26,6.26,0,0,0,73.267,29.9h8.222a2.741,2.741,0,1,1,0,5.482H73.267a11.738,11.738,0,0,1-10.136-6.731l-3.245-7.707L52.9,42.326c-1.135,3.475-3.1,4.018-4.226,4.018Z" transform="translate(8.963 24.912)" fill="#f3c10f"/>
    </g>
    <g id="lnr-heart-pulse-2" data-name="lnr-heart-pulse" transform="translate(6870.831 1593)">
      <path id="Path_1-2" data-name="Path 1" d="M35.313,41.407a2.743,2.743,0,0,1-1.332-.345A150.667,150.667,0,0,1,4.55,18.686a2.74,2.74,0,0,1,3.859-3.892,148.45,148.45,0,0,0,26.9,20.7,148.74,148.74,0,0,0,26.9-20.7,2.74,2.74,0,1,1,3.859,3.892A150.845,150.845,0,0,1,36.645,41.062,2.743,2.743,0,0,1,35.313,41.407Z" transform="translate(16.762 51.781)"/>
      <path id="Path_2-2" data-name="Path 2" d="M7.011,51.335a2.739,2.739,0,0,1-2.483-1.573A44.553,44.553,0,0,1,0,30.779,28.81,28.81,0,0,1,28.779,2,27.694,27.694,0,0,1,44.845,7.668a30.27,30.27,0,0,1,7.23,7.45,30.27,30.27,0,0,1,7.23-7.45A27.694,27.694,0,0,1,75.373,2a28.81,28.81,0,0,1,28.779,28.779,44.553,44.553,0,0,1-4.528,18.983,2.74,2.74,0,0,1-4.961-2.33A39.133,39.133,0,0,0,98.67,30.784a23.327,23.327,0,0,0-23.3-23.3c-9.335,0-18.4,7.68-20.7,14.57a2.738,2.738,0,0,1-5.2,0c-2.3-6.89-11.363-14.57-20.7-14.57a23.327,23.327,0,0,0-23.3,23.3A39.133,39.133,0,0,0,9.489,47.432,2.747,2.747,0,0,1,7.011,51.34Z" transform="translate(0 -2)"/>
      <path id="Path_3-2" data-name="Path 3" d="M48.676,46.35h-.071c-1.107-.022-3.119-.6-4.128-4.2L37.806,18.393,33.382,36.367c-.866,3.525-2.878,4.265-4,4.385s-3.245-.148-4.873-3.4l-3.322-6.638a3,3,0,0,0-.417-.641c-.016.022-.038.049-.06.082-2.028,2.977-6.534,5.224-10.486,5.224H4.741a2.741,2.741,0,0,1,0-5.482h5.482a8.316,8.316,0,0,0,5.959-2.829,5.477,5.477,0,0,1,4.884-2.62,6.277,6.277,0,0,1,5.027,3.815l2.439,4.879L33.662,12.3c.866-3.508,2.642-4.27,3.98-4.292s3.136.685,4.117,4.166L48.8,37.255l6.457-19.778c1.124-3.442,3.19-4.034,4.32-4.084s3.234.373,4.643,3.711l3.969,9.423A6.26,6.26,0,0,0,73.267,29.9h8.222a2.741,2.741,0,1,1,0,5.482H73.267a11.738,11.738,0,0,1-10.136-6.731l-3.245-7.707L52.9,42.326c-1.135,3.475-3.1,4.018-4.226,4.018Z" transform="translate(8.963 24.912)"/>
    </g>
  </g>
</svg>
