<?xml version="1.0"?>
<svg xmlns="http://www.w3.org/2000/svg" xmlns:xlink="http://www.w3.org/1999/xlink" version="1.1" id="Capa_1" x="0px" y="0px" viewBox="0 0 512.002 512.002" style="enable-background:new 0 0 512.002 512.002;" xml:space="preserve" width="512px" height="512px" class=""><g><rect x="88" y="212.249" style="fill:#F3C10F" width="384" height="255.512" data-original="#54FEBD" class="" data-old_color="#54FEBD"/><g>
	<path style="fill:#000000" d="M504,499.761H120c-4.424,0-8-3.584-8-8V236.249c0-4.416,3.576-8,8-8h384c4.424,0,8,3.584,8,8   v255.512C512,496.177,508.424,499.761,504,499.761z M128,483.761h368V244.249H128V483.761z" data-original="#1D1B4C" class="active-path" data-old_color="#1D1B4C"/>
	<path style="fill:#000000" d="M120,283.761H8c-4.424,0-8-3.584-8-8V20.241c0-4.416,3.576-8,8-8h384c4.424,0,8,3.584,8,8v216   c0,4.416-3.576,8-8,8s-8-3.584-8-8v-208H16v239.52h104c4.424,0,8,3.584,8,8S124.424,283.761,120,283.761z" data-original="#1D1B4C" class="active-path" data-old_color="#1D1B4C"/>
	<path style="fill:#000000" d="M312,395.761c-1.752,0-3.504-0.576-4.952-1.72l-192-151.512c-3.472-2.736-4.064-7.768-1.328-11.24   c2.736-3.464,7.768-4.056,11.232-1.328L312,377.569l187.048-147.608c3.488-2.728,8.504-2.144,11.232,1.328   c2.736,3.472,2.144,8.504-1.328,11.24l-192,151.512C315.504,395.185,313.752,395.761,312,395.761z" data-original="#1D1B4C" class="active-path" data-old_color="#1D1B4C"/>
	<path style="fill:#000000" d="M503.992,499.761c-1.736,0-3.488-0.56-4.96-1.728l-161.68-128c-3.464-2.744-4.048-7.776-1.304-11.24   c2.744-3.464,7.76-4.056,11.24-1.312l161.68,128c3.464,2.744,4.048,7.776,1.304,11.24   C508.696,498.721,506.352,499.761,503.992,499.761z" data-original="#1D1B4C" class="active-path" data-old_color="#1D1B4C"/>
	<path style="fill:#000000" d="M120.008,499.761c-2.368,0-4.704-1.04-6.28-3.032c-2.744-3.464-2.16-8.496,1.304-11.24l161.68-128   c3.464-2.752,8.504-2.16,11.24,1.312c2.744,3.464,2.16,8.496-1.304,11.24l-161.68,128   C123.504,499.201,121.744,499.761,120.008,499.761z" data-original="#1D1B4C" class="active-path" data-old_color="#1D1B4C"/>
	<path style="fill:#000000" d="M336,83.761H96c-4.424,0-8-3.584-8-8s3.576-8,8-8h240c4.424,0,8,3.584,8,8   S340.424,83.761,336,83.761z" data-original="#1D1B4C" class="active-path" data-old_color="#1D1B4C"/>
	<path style="fill:#000000" d="M336,123.761H64c-4.424,0-8-3.584-8-8s3.576-8,8-8h272c4.424,0,8,3.584,8,8   S340.424,123.761,336,123.761z" data-original="#1D1B4C" class="active-path" data-old_color="#1D1B4C"/>
	<path style="fill:#000000" d="M336,163.761H64c-4.424,0-8-3.584-8-8s3.576-8,8-8h272c4.424,0,8,3.584,8,8   S340.424,163.761,336,163.761z" data-original="#1D1B4C" class="active-path" data-old_color="#1D1B4C"/>
	<path style="fill:#000000" d="M144,203.761H64c-4.424,0-8-3.584-8-8s3.576-8,8-8h80c4.424,0,8,3.584,8,8   S148.424,203.761,144,203.761z" data-original="#1D1B4C" class="active-path" data-old_color="#1D1B4C"/>
	<path style="fill:#000000" d="M176,203.761c-2.08,0-4.168-0.88-5.68-2.32c-1.448-1.52-2.32-3.6-2.32-5.68s0.872-4.16,2.32-5.68   c2.96-2.96,8.32-2.96,11.36,0c1.44,1.52,2.32,3.6,2.32,5.68c0,2.08-0.88,4.16-2.32,5.68C180.16,202.881,178.08,203.761,176,203.761   z" data-original="#1D1B4C" class="active-path" data-old_color="#1D1B4C"/>
	<path style="fill:#000000" d="M208,203.761c-2.08,0-4.168-0.88-5.68-2.32c-1.448-1.52-2.32-3.6-2.32-5.68s0.872-4.16,2.32-5.68   c3.04-2.96,8.32-2.96,11.36,0c1.44,1.52,2.32,3.6,2.32,5.68c0,2.08-0.88,4.16-2.32,5.68C212.16,202.881,210.08,203.761,208,203.761   z" data-original="#1D1B4C" class="active-path" data-old_color="#1D1B4C"/>
	<path style="fill:#000000" d="M240,203.761c-2.168,0-4.168-0.88-5.68-2.32c-1.448-1.52-2.32-3.6-2.32-5.68s0.872-4.16,2.32-5.68   c2.96-2.96,8.4-2.96,11.36,0c1.44,1.52,2.32,3.6,2.32,5.68c0,2.08-0.88,4.16-2.32,5.68C244.16,202.881,242.08,203.761,240,203.761z   " data-original="#1D1B4C" class="active-path" data-old_color="#1D1B4C"/>
	<path style="fill:#000000" d="M272,203.761c-2.08,0-4.168-0.88-5.68-2.32c-1.448-1.52-2.32-3.6-2.32-5.68s0.872-4.16,2.32-5.68   c3.04-2.96,8.32-2.96,11.36,0c1.44,1.52,2.32,3.6,2.32,5.68c0,2.08-0.88,4.16-2.32,5.68C276.16,202.881,274.16,203.761,272,203.761   z" data-original="#1D1B4C" class="active-path" data-old_color="#1D1B4C"/>
	<path style="fill:#000000" d="M64,83.761c-2.08,0-4.168-0.88-5.68-2.32c-1.448-1.52-2.32-3.6-2.32-5.68   c0-2.16,0.872-4.16,2.32-5.68c2.96-2.96,8.4-2.96,11.36,0c1.44,1.52,2.32,3.6,2.32,5.68s-0.808,4.16-2.32,5.68   C68.16,82.881,66.08,83.761,64,83.761z" data-original="#1D1B4C" class="active-path" data-old_color="#1D1B4C"/>
</g></g> </svg>
