<svg xmlns="http://www.w3.org/2000/svg" width="119.122" height="50.808" viewBox="0 0 119.122 50.808">
  <g id="Group_1" data-name="Group 1" transform="translate(-141 -394.578)">
    <path id="Path_676" data-name="Path 676" d="M496.847,212.79c-7.014-.01-13.033-3.3-17.3-6.541a41.222,41.222,0,0,1-6.864-6.509,1.215,1.215,0,0,1,.951-1.972l5.982-.007a1.2,1.2,0,0,1,.961.475c5.741,7.36,11.57,9.635,16.931,9.657,5.025.008,9.738-2.108,13.312-4.4a37.793,37.793,0,0,0,6.492-5.235,1.233,1.233,0,0,0,.087-.1,1.216,1.216,0,0,1,1.855,1.572c-7.522,9.63-15.345,13.06-22.358,13.06Z" transform="translate(-298.376 232.596)" fill="#fff"/>
    <path id="Path_677" data-name="Path 677" d="M454.838,171.806c-3.531,0-5.47,2.79-5.47,7.462h10.654c0-4.672-2.055-7.462-5.184-7.462m-5.524,12.071v.457c0,3.989,1.477,8.208,7.12,8.208a10.614,10.614,0,0,0,7.174-2.854l2.455,3.819a15.585,15.585,0,0,1-10.372,3.814c-8.146,0-13.272-5.871-13.272-15.091,0-5.075,1.083-8.431,3.586-11.279a10.978,10.978,0,0,1,8.834-3.878,11.144,11.144,0,0,1,7.917,2.963c2.506,2.283,3.758,5.81,3.758,12.535v1.305Z" transform="translate(-301.418 229.483)"/>
    <path id="Path_678" data-name="Path 678" d="M473.17,197.11v-26.4h-7.754v-5.025h22.134l-1.446,4.748-.083.276h-6.981v26.4Z" transform="translate(-299.086 229.342)"/>
    <path id="Path_679" data-name="Path 679" d="M489.582,196.323V175.16l5.479-1.713v22.876Z" transform="translate(-296.634 230.13)"/>
    <path id="Path_680" data-name="Path 680" d="M508.219,172.705c-1.083,1.825-1.609,4.643-1.606,8.42,0,4.573.68,7.562,1.855,9.354a5.449,5.449,0,0,0,4.979,2.486,5.173,5.173,0,0,0,4.785-2.435c1.1-1.717,1.694-4.549,1.694-8.738,0-3.935-.437-6.936-1.48-8.889A5.311,5.311,0,0,0,513.27,170a5.394,5.394,0,0,0-5.051,2.708M519.529,200.5a19.847,19.847,0,0,0-6.172-2.9,11.919,11.919,0,0,1-9.893-4.674c-2.207-2.917-3.29-6.957-3.293-11.53,0-5.071,1.3-9.1,3.614-11.864a12.959,12.959,0,0,1,19.4.227c2.241,2.862,3.367,6.9,3.367,11.721.008,6.563-2.081,11.327-5.873,14.019.989.475,2.04,1.121,2.763,1.561a7.1,7.1,0,0,0,4.017,1.241,10.7,10.7,0,0,0,1.918-.189l.69-.124-1.637,4.065-.065.146-.145.064a6.7,6.7,0,0,1-2.583.521,11.507,11.507,0,0,1-6.105-2.285" transform="translate(-295.558 229.301)"/>
    <path id="Path_681" data-name="Path 681" d="M543.1,182.973c-6.265,0-8.146,1.825-8.146,5.466,0,2.738,1.485,4.445,3.989,4.445a6.534,6.534,0,0,0,5.186-3.02l.111-6.828s-.683-.064-1.14-.064m6.494,14.81a6.765,6.765,0,0,1-3.932-3.876,9.783,9.783,0,0,1-7.914,3.533c-6.61,0-9.569-3.643-9.569-8.655,0-6.669,5.009-10.027,14.238-10.027h1.934v-1.535c0-3.308-.566-5.069-3.982-5.069-4.162,0-8.6,3.3-8.6,3.3l-2.793-4.495c4.332-2.738,7.916-3.932,12.249-3.932,4.5,0,7.517,1.654,8.77,4.786.514,1.253.514,2.79.457,7.066l-.114,8.259c-.054,3.866.285,5.125,2.5,6.663Z" transform="translate(-292.719 229.478)"/>
    <path id="Path_682" data-name="Path 682" d="M488.975,168.815a3.462,3.462,0,1,1,3.4,3.478,3.43,3.43,0,0,1-3.4-3.478" transform="translate(-296.694 229.302)"/>
  </g>
</svg>
