<?xml version="1.0"?>
<svg xmlns="http://www.w3.org/2000/svg" id="Layer_1" enable-background="new 0 0 68 68" height="512px" viewBox="0 0 68 68" width="512px" class=""><g><g><g><path d="m8.92408 46.25275 8.68709 8.68709c1.41836 1.41835 3.71797 1.41835 5.13632 0l12.07771-12.0777-13.82341-13.82341-12.07771 12.0777c-1.41835 1.41836-1.41835 3.71797 0 5.13632z" fill="#f37d7f" data-original="#F37D7F" class="" style="fill:#F3C110" data-old_color="#f37d7f"/></g><g><path d="m21.00176 29.03876 13.82341 13.82341 26.22752-5.43221c.79165-.16397 1.08409-1.14189.51243-1.71355l-33.41759-33.41759c-.57166-.57166-1.54958-.27921-1.71355.51243z" fill="#fff" data-original="#FFF" class=""/></g><g><path d="m6.84722 52.73643 4.28027 4.28027c.94557.94557 2.47865.94557 3.42422 0l2.56816-2.56816-7.70449-7.70449-2.56816 2.56816c-.94557.94558-.94557 2.47865 0 3.42422z" fill="#5ea7dc" data-original="#5EA7DC" class="active-path" data-old_color="#5ea7dc" style="fill:#777879"/></g><g><path d="m27.90642 35.94341 6.92085 6.91719-12.07891 12.0789c-1.42103 1.42102-3.7153 1.42102-5.13632 0l-3.44135-3.44135c5.76127-6.49747 11.33022-10.49548 13.73573-15.55474z" fill="#ef3f3e" data-original="#EF3F3E" class="" style="fill:#F3C110" data-old_color="#ef3f3e"/></g><g><path d="m28.14627 2.29693 33.41937 33.41937c.57167.57167.27919 1.54962-.51247 1.71355l-26.2259 5.43075-6.42825-6.42459c7.19939-15.05801-.23188-26.05415-2.88563-29.18733l.91932-4.43928c.16395-.79167 1.14189-1.08414 1.71356-.51247z" fill="#dfe1e6" data-original="#DFE1E6" class=""/></g><g><path d="m14.17068 51.49815 2.9534 2.9534-2.56816 2.56816c-.94166.94166-2.48256.94166-3.42422 0l-1.07864-1.07864c1.47239-1.5238 2.84211-2.99624 4.11762-4.44292z" fill="#3779be" data-original="#3779BE" class="" data-old_color="#3779be" style="fill:#000000"/></g><path d="m39.45915 13.61044 10.79436 10.79436 3.03399-6.06797c.23304-.46608.14169-1.029-.22678-1.39747l-6.13613-6.13612c-.36847-.36847-.93139-.45982-1.39747-.22678z" fill="#c7cad0" data-original="#C7CAD0" class=""/><path d="m23.65002 54.03732 11.07468 11.07468c1.18196 1.18196 3.0983 1.18196 4.28027 0v-.00001c1.18196-1.18196 1.18196-3.0983 0-4.28026l-11.07468-11.07468z" fill="#c7cad0" data-original="#C7CAD0" class=""/><path d="m37.98611 54.23754-2.79074 2.79074-7.26789-7.26789 6.93402-.11986c.90741.23967 3.78379 3.93783 3.12461 4.59701z" fill="#fac41d" data-original="#FAC41D" class=""/><g><path d="m48.12465 35.69047c-.34814 0-.66016-.24365-.7334-.59814-.08398-.40576.17676-.80225.58252-.88623l4.03516-.83545c.40088-.08545.80176.17627.88623.58252.08398.40576-.17676.80225-.58252.88623l-4.03516.83545c-.05127.01074-.10205.01562-.15283.01562z" fill="#fff" data-original="#FFF" class=""/></g><g><path d="m38.44105 37.69633c-.34766 0-.66016-.24365-.7334-.59766-.08398-.40576.17676-.80273.58203-.88672l4.8418-1.00293c.40381-.0835.80322.17627.88672.58203.08398.40576-.17676.80273-.58203.88672l-4.8418 1.00293c-.05127.01074-.10254.01563-.15332.01563z" fill="#fff" data-original="#FFF" class=""/></g><g fill="#231f20"><g><path d="m17.45 40.237h2v10.352h-2z" transform="matrix(.707 -.707 .707 .707 -26.708 26.348)" data-original="#000000" class=""/><path d="m21.731 35.957h2v10.352h-2z" transform="matrix(.707 -.707 .707 .707 -22.428 28.121)" data-original="#000000" class=""/></g><path d="m62.27211 35.00932-10.80176-10.80176 2.71191-5.42383c.42627-.85303.25928-1.87842-.41455-2.55127l-6.13574-6.13574c-.65771-.65869-1.71484-.83203-2.55225-.41504l-5.42334 2.71191-10.80175-10.80175c-.38136-.38135-.88623-.59131-1.4209-.59131-.96924 0-1.7832.66113-1.97852 1.60791l-5.37189 25.93439-11.86639 11.86639c-1.67484 1.67484-1.86971 4.40419-.19476 6.3139l-1.8819 1.8819c-1.33743 1.33642-1.33781 3.50158 0 4.83838l4.27979 4.28027c1.33689 1.33689 3.50172 1.33815 4.83887 0l1.8819-1.8819c1.90954 1.6748 4.63888 1.48026 6.3139-.19476l.19556-.19556 10.36743 10.36743c1.57407 1.57407 4.12009 1.57424 5.69434 0 1.57395-1.57294 1.57426-4.12008 0-5.69434l-3.09943-3.09943 2.08038-2.08075c.26221-.26221.52832-.74512.30859-1.55957-.39697-1.47168-2.66992-4.39014-3.88477-4.71094-.08936-.02344-.18848-.0332-.27246-.0332l-4.46027.07697 4.93701-4.93701 25.9339-5.3714c.72705-.15039 1.31055-.68506 1.52295-1.396.2129-.71141.01905-1.47899-.50585-2.00389zm-16.20411-23.56104c.03271 0 .0957.0083.14941.06201l6.13672 6.13672c.06396.06396.07959.16162.03906.24268l-2.41357 4.82715-8.8291-8.8291zm-32.22314 44.86133c-.53613.53711-1.47217.53809-2.01025 0l-4.28027-4.28076c-.55579-.55478-.55574-1.45403 0-2.00977l1.86084-1.86084 6.29053 6.29053zm24.45313 8.09521c-.76563.76563-2.10059.76563-2.86621 0l-10.36744-10.36743 2.86304-2.86304c.69791.69749-3.09982-3.09792 10.37061 10.36426.79067.79067.79375 2.07246 0 2.86621zm-1.26172-10.63232-1.83765 1.83862-4.89197-4.89197 4.33704-.07458c.63135.42725 2.10449 2.30322 2.39258 3.12793zm-14.99561.46045c-.99414.99414-2.72852.99414-3.72266 0-3.18625-3.18625-5.49677-5.49677-8.68701-8.68701-1.02637-1.02637-1.02637-2.69629 0-3.72266l11.37061-11.37061 12.40967 12.40967c-15.4191 15.41838-8.2815 8.2815-11.37061 11.37061zm13.11035-12.45947-13.06054-13.06006 5.3501-25.70752 33.40967 33.44482z" data-original="#231F20" class="" style="fill:#231F20"/><g><path d="m56.985 6.87894c-.39063-.39063-1.02344-.39063-1.41406 0l-2.56787 2.56787c-.39063.39063-.39063 1.02344 0 1.41406s1.02344.39063 1.41406 0l2.56787-2.56786c.39062-.39063.39062-1.02344 0-1.41407z" data-original="#000000" class=""/><path d="m51.33802 1.46879c-.54395-.1084-1.06885.24316-1.17676.78418l-.85596 4.28027c-.10839.54199.24269 1.06836.78419 1.17676.5462.1084 1.06964-.24683 1.17676-.78418l.85596-4.28027c.10839-.542-.24268-1.06836-.78419-1.17676z" data-original="#000000" class=""/><path d="m61.2184 11.74174-4.28027.85596c-.5415.1084-.89258.63477-.78418 1.17676.10718.53754.63068.89258 1.17676.78418l4.28027-.85596c.5415-.1084.89258-.63477.78418-1.17676-.10792-.54151-.63428-.89405-1.17676-.78418z" data-original="#000000" class=""/></g></g></g></g> </svg>
