<svg xmlns="http://www.w3.org/2000/svg" width="123.847" height="138.755" viewBox="0 0 123.847 138.755">
  <g id="Group_32" data-name="Group 32" transform="translate(-7148 -4012)">
    <path id="lnr-file-empty_1_" data-name="lnr-file-empty (1)" d="M117.78,34.929,84.917,2.066A3.647,3.647,0,0,0,82.332,1H12.954A10.968,10.968,0,0,0,2,11.954V128.8a10.968,10.968,0,0,0,10.954,10.954h94.938A10.968,10.968,0,0,0,118.847,128.8V37.515A3.678,3.678,0,0,0,117.78,34.929Zm-7.748,2.585H85.984a3.653,3.653,0,0,1-3.651-3.651V9.815Zm1.512,91.286a3.653,3.653,0,0,1-3.651,3.651H12.954A3.653,3.653,0,0,1,9.3,128.8V11.954A3.653,3.653,0,0,1,12.954,8.3H75.029v25.56A10.968,10.968,0,0,0,85.984,44.818h25.56Z" transform="translate(7146 4011)" fill="#f4cb44"/>
    <path id="lnr-file-empty_1_2" data-name="lnr-file-empty (1)" d="M117.78,34.929,84.917,2.066A3.647,3.647,0,0,0,82.332,1H12.954A10.968,10.968,0,0,0,2,11.954V128.8a10.968,10.968,0,0,0,10.954,10.954h94.938A10.968,10.968,0,0,0,118.847,128.8V37.515A3.678,3.678,0,0,0,117.78,34.929Zm-7.748,2.585H85.984a3.653,3.653,0,0,1-3.651-3.651V9.815Zm1.512,91.286a3.653,3.653,0,0,1-3.651,3.651H12.954A3.653,3.653,0,0,1,9.3,128.8V11.954A3.653,3.653,0,0,1,12.954,8.3H75.029v25.56A10.968,10.968,0,0,0,85.984,44.818h25.56Z" transform="translate(7153 4011)"/>
  </g>
</svg>
