<svg xmlns="http://www.w3.org/2000/svg" width="155.539" height="147.687" viewBox="0 0 155.539 147.687">
  <g id="Group_33" data-name="Group 33" transform="translate(-7345.5 -4013.5)">
    <g id="Group_31" data-name="Group 31" transform="translate(-44 27)">
      <path id="history-solid" d="M154.128,79.208c.075,39.308-32.755,71.45-73.011,71.478a73.854,73.854,0,0,1-45.907-15.8,6.792,6.792,0,0,1-.542-10.243l3.319-3.241a7.21,7.21,0,0,1,9.4-.571,54.813,54.813,0,0,0,33.681,11.441c29.964,0,54.209-23.679,54.209-52.932s-24.25-52.932-54.209-52.932A54.728,54.728,0,0,0,43.923,40.775l14.953,14.6a4.59,4.59,0,0,1-3.333,7.858H12.714A4.659,4.659,0,0,1,8,58.631V16.811a4.729,4.729,0,0,1,8.047-3.255l14.546,14.2A73.753,73.753,0,0,1,81.064,8C121.37,8,154.053,39.869,154.128,79.208Zm-53.3,22.664,2.894-3.633a6.8,6.8,0,0,0-1.24-9.689L90.492,79.444V49.425a6.989,6.989,0,0,0-7.071-6.9H78.707a6.989,6.989,0,0,0-7.071,6.9V88.449l19.27,14.635A7.186,7.186,0,0,0,100.829,101.873Z" transform="translate(7384 3981)" fill="none" stroke="#f4cb44" stroke-width="5"/>
      <path id="history-solid-2" data-name="history-solid" d="M154.128,79.208c.075,39.308-32.755,71.45-73.011,71.478a73.854,73.854,0,0,1-45.907-15.8,6.792,6.792,0,0,1-.542-10.243l3.319-3.241a7.21,7.21,0,0,1,9.4-.571,54.813,54.813,0,0,0,33.681,11.441c29.964,0,54.209-23.679,54.209-52.932s-24.25-52.932-54.209-52.932A54.728,54.728,0,0,0,43.923,40.775l14.953,14.6a4.59,4.59,0,0,1-3.333,7.858H12.714A4.659,4.659,0,0,1,8,58.631V16.811a4.729,4.729,0,0,1,8.047-3.255l14.546,14.2A73.753,73.753,0,0,1,81.064,8C121.37,8,154.053,39.869,154.128,79.208Zm-53.3,22.664,2.894-3.633a6.8,6.8,0,0,0-1.24-9.689L90.492,79.444V49.425a6.989,6.989,0,0,0-7.071-6.9H78.707a6.989,6.989,0,0,0-7.071,6.9V88.449l19.27,14.635A7.186,7.186,0,0,0,100.829,101.873Z" transform="translate(7388.411 3981)" fill="none" stroke="#000" stroke-width="5"/>
    </g>
  </g>
</svg>
