<svg xmlns="http://www.w3.org/2000/svg" width="182.202" height="166.604" viewBox="0 0 182.202 166.604">
  <g id="Group_34" data-name="Group 34" transform="translate(-7593 -3997.985)">
    <path id="university-solid" d="M190.2,66.84v5.807a2.9,2.9,0,0,1-2.9,2.9h-8.71v4.355a4.355,4.355,0,0,1-4.355,4.355H31.968a4.355,4.355,0,0,1-4.355-4.355V75.55H18.9a2.9,2.9,0,0,1-2.9-2.9V66.84a2.9,2.9,0,0,1,1.793-2.683l84.2-31.937a2.9,2.9,0,0,1,2.22,0l84.2,31.937A2.9,2.9,0,0,1,190.2,66.84Zm-8.71,110.328H24.71a8.71,8.71,0,0,0-8.71,8.71v5.807a2.9,2.9,0,0,0,2.9,2.9H187.3a2.9,2.9,0,0,0,2.9-2.9v-5.807A8.71,8.71,0,0,0,181.492,177.168ZM45.034,90.067v69.681H31.968a4.355,4.355,0,0,0-4.355,4.355v7.258H178.588V164.1a4.355,4.355,0,0,0-4.355-4.355H161.168V90.067H137.941v69.681H114.714V90.067H91.487v69.681H68.261V90.067Z" transform="translate(7579 3968)" fill="none" stroke="#f4cb44" stroke-width="4"/>
    <path id="university-solid-2" data-name="university-solid" d="M190.2,66.84v5.807a2.9,2.9,0,0,1-2.9,2.9h-8.71v4.355a4.355,4.355,0,0,1-4.355,4.355H31.968a4.355,4.355,0,0,1-4.355-4.355V75.55H18.9a2.9,2.9,0,0,1-2.9-2.9V66.84a2.9,2.9,0,0,1,1.793-2.683l84.2-31.937a2.9,2.9,0,0,1,2.22,0l84.2,31.937A2.9,2.9,0,0,1,190.2,66.84Zm-8.71,110.328H24.71a8.71,8.71,0,0,0-8.71,8.71v5.807a2.9,2.9,0,0,0,2.9,2.9H187.3a2.9,2.9,0,0,0,2.9-2.9v-5.807A8.71,8.71,0,0,0,181.492,177.168ZM45.034,90.067v69.681H31.968a4.355,4.355,0,0,0-4.355,4.355v7.258H178.588V164.1a4.355,4.355,0,0,0-4.355-4.355H161.168V90.067H137.941v69.681H114.714V90.067H91.487v69.681H68.261V90.067Z" transform="translate(7583 3968)" fill="none" stroke="#000" stroke-width="4"/>
  </g>
</svg>
