<svg xmlns="http://www.w3.org/2000/svg" width="52.517" height="69.356" viewBox="0 0 52.517 69.356">
  <g id="Group_2043" data-name="Group 2043" transform="translate(4754 150)">
    <path id="Subtraction_2" data-name="Subtraction 2" d="M24.311,21.666H1.621a1.6,1.6,0,0,1-.629-.128,1.639,1.639,0,0,1-.864-.866A1.608,1.608,0,0,1,0,20.041V18.958a1.608,1.608,0,0,1,.128-.631,1.639,1.639,0,0,1,.864-.866,1.6,1.6,0,0,1,.629-.128H24.311a1.6,1.6,0,0,1,.629.128,1.628,1.628,0,0,1,.991,1.5v1.083a1.609,1.609,0,0,1-.128.631,1.639,1.639,0,0,1-.864.866A1.6,1.6,0,0,1,24.311,21.666Zm0-8.667H1.621a1.6,1.6,0,0,1-.629-.128,1.639,1.639,0,0,1-.864-.866A1.608,1.608,0,0,1,0,11.375V10.291a1.608,1.608,0,0,1,.128-.631,1.639,1.639,0,0,1,.864-.866,1.6,1.6,0,0,1,.629-.128H24.311a1.6,1.6,0,0,1,.629.128,1.628,1.628,0,0,1,.991,1.5v1.083a1.609,1.609,0,0,1-.128.631,1.639,1.639,0,0,1-.864.866A1.6,1.6,0,0,1,24.311,13Zm0-8.666H1.621a1.6,1.6,0,0,1-.629-.128,1.639,1.639,0,0,1-.864-.866A1.608,1.608,0,0,1,0,2.708V1.625A1.608,1.608,0,0,1,.128.994,1.639,1.639,0,0,1,.991.128,1.6,1.6,0,0,1,1.621,0H24.311a1.6,1.6,0,0,1,.629.128,1.628,1.628,0,0,1,.991,1.5V2.708a1.608,1.608,0,0,1-.128.631,1.639,1.639,0,0,1-.864.866A1.6,1.6,0,0,1,24.311,4.333Z" transform="translate(-4737.909 -120.338)" fill="#f2c010"/>
    <path id="file-alt-solid" d="M29.468,17.892V0H3.157A3.15,3.15,0,0,0,0,3.157V64.2a3.15,3.15,0,0,0,3.157,3.157h44.2A3.15,3.15,0,0,0,50.517,64.2V21.049H32.626A3.167,3.167,0,0,1,29.468,17.892Zm8.42,31.047a1.583,1.583,0,0,1-1.579,1.579h-22.1a1.583,1.583,0,0,1-1.579-1.579V47.886a1.583,1.583,0,0,1,1.579-1.579h22.1a1.583,1.583,0,0,1,1.579,1.579Zm0-8.42A1.583,1.583,0,0,1,36.309,42.1h-22.1a1.583,1.583,0,0,1-1.579-1.579V39.467a1.583,1.583,0,0,1,1.579-1.579h22.1a1.583,1.583,0,0,1,1.579,1.579Zm0-9.472V32.1a1.583,1.583,0,0,1-1.579,1.579h-22.1A1.583,1.583,0,0,1,12.629,32.1V31.047a1.583,1.583,0,0,1,1.579-1.579h22.1A1.583,1.583,0,0,1,37.888,31.047Zm12.629-15.01v.8H33.678V0h.8a3.155,3.155,0,0,1,2.236.921L49.6,13.813A3.147,3.147,0,0,1,50.517,16.037Z" transform="translate(-4753 -149)" fill="none" stroke="#000" stroke-width="2"/>
  </g>
</svg>
