<svg xmlns="http://www.w3.org/2000/svg" width="125.477" height="166.823" viewBox="0 0 125.477 166.823">
  <g id="Group_2044" data-name="Group 2044" transform="translate(5215.5 -279.98)">
    <path id="Subtraction_6" data-name="Subtraction 6" d="M61.239,142.89c-18.028,0-30.62-12.434-30.62-30.237,0-4.176,1.473-9.356,4.378-15.4C39.959,86.938,48.788,74.82,61.239,61.239c12.452,13.583,21.281,25.7,26.241,36.017,2.9,6.04,4.378,11.221,4.378,15.4C91.858,130.456,79.267,142.89,61.239,142.89Z" transform="translate(-5222 280)" fill="#f2c010"/>
    <path id="burn-solid" d="M61.239,0C25.42,32.31,0,70.456,0,95.845,0,135.554,25.2,163.3,61.239,163.3s61.239-27.749,61.239-67.458C122.477,70.361,96.9,32.182,61.239,0Zm0,142.89c-18.021,0-30.619-12.439-30.619-30.237,0-4.306,1.467-19.615,30.619-51.415,29.152,31.8,30.619,47.109,30.619,51.415C91.858,130.451,79.259,142.89,61.239,142.89Z" transform="translate(-5214 282)" fill="none" stroke="#000" stroke-width="3"/>
  </g>
</svg>
