<svg xmlns="http://www.w3.org/2000/svg" width="58" height="72" viewBox="0 0 58 72">
  <g id="Group_2031" data-name="Group 2031" transform="translate(5774 415)">
    <g id="Group_2032" data-name="Group 2032" transform="translate(-5774 -415)">
      <g id="Rectangle_1880" data-name="Rectangle 1880" fill="none" stroke="#000" stroke-width="2">
        <rect width="58" height="72" rx="6" stroke="none"/>
        <rect x="1" y="1" width="56" height="70" rx="5" fill="none"/>
      </g>
      <g id="Group_2028" data-name="Group 2028" transform="translate(7.977 19.896)">
        <path id="Subtraction_1" data-name="Subtraction 1" d="M4.849,32.973a4.885,4.885,0,0,1-.977-.1,4.822,4.822,0,0,1-1.734-.73A4.863,4.863,0,0,1,.381,30.011,4.825,4.825,0,0,1,.1,29.1a4.9,4.9,0,0,1,0-1.954,4.822,4.822,0,0,1,.73-1.734,4.863,4.863,0,0,1,2.133-1.757,4.825,4.825,0,0,1,.91-.283,4.9,4.9,0,0,1,1.954,0,4.822,4.822,0,0,1,1.734.73,4.863,4.863,0,0,1,1.757,2.133,4.825,4.825,0,0,1,.283.91,4.9,4.9,0,0,1,0,1.954,4.822,4.822,0,0,1-.73,1.734,4.864,4.864,0,0,1-2.133,1.757,4.826,4.826,0,0,1-.91.283A4.885,4.885,0,0,1,4.849,32.973Zm33.458-1.455H14.062a1.454,1.454,0,0,1-1.455-1.455V26.184a1.454,1.454,0,0,1,1.455-1.455H38.307a1.454,1.454,0,0,1,1.455,1.455v3.879a1.454,1.454,0,0,1-1.455,1.455ZM4.849,21.336a4.885,4.885,0,0,1-.977-.1,4.823,4.823,0,0,1-1.734-.73A4.863,4.863,0,0,1,.381,18.374a4.824,4.824,0,0,1-.283-.91,4.9,4.9,0,0,1,0-1.954,4.822,4.822,0,0,1,.73-1.734,4.863,4.863,0,0,1,2.133-1.757,4.825,4.825,0,0,1,.91-.283,4.9,4.9,0,0,1,1.954,0,4.822,4.822,0,0,1,1.734.73A4.863,4.863,0,0,1,9.317,14.6a4.824,4.824,0,0,1,.283.91,4.9,4.9,0,0,1,0,1.954A4.822,4.822,0,0,1,8.87,19.2a4.863,4.863,0,0,1-2.133,1.757,4.825,4.825,0,0,1-.91.283A4.885,4.885,0,0,1,4.849,21.336Zm33.458-1.455H14.062a1.454,1.454,0,0,1-1.455-1.455V14.547a1.454,1.454,0,0,1,1.455-1.455H38.307a1.454,1.454,0,0,1,1.455,1.455v3.879a1.453,1.453,0,0,1-1.455,1.455ZM4.849,9.7a4.885,4.885,0,0,1-.977-.1,4.822,4.822,0,0,1-1.734-.73A4.863,4.863,0,0,1,.381,6.736,4.824,4.824,0,0,1,.1,5.826a4.9,4.9,0,0,1,0-1.954,4.822,4.822,0,0,1,.73-1.734A4.863,4.863,0,0,1,2.962.381,4.825,4.825,0,0,1,3.872.1,4.9,4.9,0,0,1,5.826.1,4.822,4.822,0,0,1,7.56.828,4.863,4.863,0,0,1,9.317,2.962a4.825,4.825,0,0,1,.283.91,4.9,4.9,0,0,1,0,1.954A4.822,4.822,0,0,1,8.87,7.56,4.863,4.863,0,0,1,6.736,9.317a4.824,4.824,0,0,1-.91.283A4.885,4.885,0,0,1,4.849,9.7ZM38.307,8.243H14.062a1.454,1.454,0,0,1-1.455-1.455V2.909a1.454,1.454,0,0,1,1.455-1.455H38.307a1.454,1.454,0,0,1,1.455,1.455V6.789a1.454,1.454,0,0,1-1.455,1.455Z" transform="translate(1.793)" fill="#f2c010"/>
        <path id="Subtraction_4" data-name="Subtraction 4" d="M4.849,32.973a4.885,4.885,0,0,1-.977-.1,4.822,4.822,0,0,1-1.734-.73A4.863,4.863,0,0,1,.381,30.011,4.825,4.825,0,0,1,.1,29.1a4.9,4.9,0,0,1,0-1.954,4.822,4.822,0,0,1,.73-1.734,4.863,4.863,0,0,1,2.133-1.757,4.825,4.825,0,0,1,.91-.283,4.9,4.9,0,0,1,1.954,0,4.822,4.822,0,0,1,1.734.73,4.863,4.863,0,0,1,1.757,2.133,4.825,4.825,0,0,1,.283.91,4.9,4.9,0,0,1,0,1.954,4.822,4.822,0,0,1-.73,1.734,4.864,4.864,0,0,1-2.133,1.757,4.826,4.826,0,0,1-.91.283A4.885,4.885,0,0,1,4.849,32.973Zm33.458-1.455H14.062a1.454,1.454,0,0,1-1.455-1.455V26.184a1.454,1.454,0,0,1,1.455-1.455H38.307a1.454,1.454,0,0,1,1.455,1.455v3.879a1.454,1.454,0,0,1-1.455,1.455ZM4.849,21.336a4.885,4.885,0,0,1-.977-.1,4.823,4.823,0,0,1-1.734-.73A4.863,4.863,0,0,1,.381,18.374a4.824,4.824,0,0,1-.283-.91,4.9,4.9,0,0,1,0-1.954,4.822,4.822,0,0,1,.73-1.734,4.863,4.863,0,0,1,2.133-1.757,4.825,4.825,0,0,1,.91-.283,4.9,4.9,0,0,1,1.954,0,4.822,4.822,0,0,1,1.734.73A4.863,4.863,0,0,1,9.317,14.6a4.824,4.824,0,0,1,.283.91,4.9,4.9,0,0,1,0,1.954A4.822,4.822,0,0,1,8.87,19.2a4.863,4.863,0,0,1-2.133,1.757,4.825,4.825,0,0,1-.91.283A4.885,4.885,0,0,1,4.849,21.336Zm33.458-1.455H14.062a1.454,1.454,0,0,1-1.455-1.455V14.547a1.454,1.454,0,0,1,1.455-1.455H38.307a1.454,1.454,0,0,1,1.455,1.455v3.879a1.453,1.453,0,0,1-1.455,1.455ZM4.849,9.7a4.885,4.885,0,0,1-.977-.1,4.822,4.822,0,0,1-1.734-.73A4.863,4.863,0,0,1,.381,6.736,4.824,4.824,0,0,1,.1,5.826a4.9,4.9,0,0,1,0-1.954,4.822,4.822,0,0,1,.73-1.734A4.863,4.863,0,0,1,2.962.381,4.825,4.825,0,0,1,3.872.1,4.9,4.9,0,0,1,5.826.1,4.822,4.822,0,0,1,7.56.828,4.863,4.863,0,0,1,9.317,2.962a4.825,4.825,0,0,1,.283.91,4.9,4.9,0,0,1,0,1.954A4.822,4.822,0,0,1,8.87,7.56,4.863,4.863,0,0,1,6.736,9.317a4.824,4.824,0,0,1-.91.283A4.885,4.885,0,0,1,4.849,9.7ZM38.307,8.243H14.062a1.454,1.454,0,0,1-1.455-1.455V2.909a1.454,1.454,0,0,1,1.455-1.455H38.307a1.454,1.454,0,0,1,1.455,1.455V6.789a1.454,1.454,0,0,1-1.455,1.455Z" transform="translate(0)" fill="none" stroke="#000" stroke-width="2"/>
      </g>
    </g>
  </g>
</svg>
