<svg xmlns="http://www.w3.org/2000/svg" width="70.077" height="70.077" viewBox="0 0 70.077 70.077">
  <g id="Group_2037" data-name="Group 2037" transform="translate(6189 -1142)">
    <path id="Subtraction_5" data-name="Subtraction 5" d="M26.754,20.221h-.1a8.535,8.535,0,0,1-1.5-.139,10.893,10.893,0,0,1-1.493-.385,16.29,16.29,0,0,1-2.889-1.313,42.264,42.264,0,0,1-4.96-3.448c-.493-.382-.96-.742-1.37-1.041-6.347-4.606-10.8-7.854-14-10.22A1.063,1.063,0,0,1,.187,2.216L1.394.462A1.065,1.065,0,0,1,2.271,0,1.053,1.053,0,0,1,2.9.208C6.108,2.576,10.569,5.833,16.94,10.457c.377.275.825.621,1.3.988a46.008,46.008,0,0,0,4.135,2.95,8.783,8.783,0,0,0,4.273,1.571h.108a8.785,8.785,0,0,0,4.274-1.572,46.032,46.032,0,0,0,4.135-2.95h0c.474-.366.921-.712,1.3-.986C42.83,5.835,47.291,2.579,50.5.208A1.053,1.053,0,0,1,51.131,0a1.065,1.065,0,0,1,.878.462l1.206,1.755a1.063,1.063,0,0,1-.245,1.458c-3.2,2.361-7.647,5.609-14,10.22-.411.3-.877.66-1.371,1.042a42.287,42.287,0,0,1-4.961,3.448A16.285,16.285,0,0,1,29.749,19.7a10.887,10.887,0,0,1-1.492.384A8.532,8.532,0,0,1,26.754,20.221Z" transform="translate(-6176.668 1174.294)" fill="#f2c010"/>
    <path id="envelope-open-solid_1_" data-name="envelope-open-solid (1)" d="M68.077,61.695a6.382,6.382,0,0,1-6.382,6.382H6.382A6.382,6.382,0,0,1,0,61.695V26.689a6.382,6.382,0,0,1,2.445-5.023c3.313-2.6,6.05-4.7,21.833-16.157C26.514,3.878,30.953-.046,34.039,0c3.084-.047,7.525,3.879,9.761,5.509C59.581,16.962,62.322,19.071,65.632,21.666a6.382,6.382,0,0,1,2.445,5.023ZM59.346,35.554a1.063,1.063,0,0,0-1.508-.254C54.8,37.543,50.464,40.712,43.8,45.549c-2.237,1.631-6.676,5.555-9.761,5.509-3.086.046-7.52-3.875-9.761-5.509-6.663-4.836-11-8-14.038-10.249a1.063,1.063,0,0,0-1.508.254L7.525,37.308a1.063,1.063,0,0,0,.245,1.458c3.043,2.247,7.373,5.41,14,10.221,2.7,1.965,7.516,6.357,12.268,6.325,4.75.032,9.568-4.357,12.268-6.325,6.628-4.81,10.959-7.974,14-10.221a1.063,1.063,0,0,0,.245-1.458Z" transform="translate(-6188 1143)" fill="none" stroke="#000" stroke-width="2"/>
  </g>
</svg>
