<svg xmlns="http://www.w3.org/2000/svg" width="71" height="71" viewBox="0 0 71 71">
  <g id="Group_1990" data-name="Group 1990" transform="translate(-5671 -408)">
    <circle id="Ellipse_461" data-name="Ellipse 461" cx="35.5" cy="35.5" r="35.5" transform="translate(5671 408)" fill="#f2f2f2"/>
    <path id="heartbeat-solid" d="M22.241,46.674l-3.454,6.909a1.111,1.111,0,0,1-2.009-.042l-3.955-8.778-2.085,4.983H4.2L16.882,62.708a1.238,1.238,0,0,0,1.786,0L31.359,49.746H23.777ZM32.909,34.866l-.167-.174a9.1,9.1,0,0,0-13.025,0L17.779,36.68,15.84,34.7a9.093,9.093,0,0,0-13.025,0l-.167.167a9.543,9.543,0,0,0-.507,12.656H9.258l2.5-5.991A1.114,1.114,0,0,1,13.8,41.5l4.045,8.987,3.406-6.8a1.111,1.111,0,0,1,1.988,0l1.918,3.837h8.264a9.543,9.543,0,0,0-.507-12.656Z" transform="translate(5688.515 395.55)" fill="#f3c10f" stroke="#52451a" stroke-width="1"/>
  </g>
</svg>
