<svg xmlns="http://www.w3.org/2000/svg" width="71" height="71" viewBox="0 0 71 71">
  <g id="Group_1993" data-name="Group 1993" transform="translate(-6225 -156)">
    <circle id="Ellipse_461" data-name="Ellipse 461" cx="35.5" cy="35.5" r="35.5" transform="translate(6225 156)" fill="#f2f2f2"/>
    <path id="receipt-solid" d="M25.928.207,23.15,3.448,19.215.207a1.15,1.15,0,0,0-1.389,0L13.89,3.448,9.955.207a1.15,1.15,0,0,0-1.389,0L4.63,3.448,1.852.207A1.157,1.157,0,0,0,0,1.133V35.858a1.157,1.157,0,0,0,1.852.926L4.63,33.543l3.936,3.241a1.15,1.15,0,0,0,1.389,0l3.936-3.241,3.936,3.241a1.15,1.15,0,0,0,1.389,0l3.936-3.241,2.778,3.241a1.158,1.158,0,0,0,1.852-.926V1.133A1.157,1.157,0,0,0,25.928.207ZM23.15,26.019a.58.58,0,0,1-.579.579H5.209a.58.58,0,0,1-.579-.579V24.862a.58.58,0,0,1,.579-.579H22.572a.58.58,0,0,1,.579.579Zm0-6.945a.58.58,0,0,1-.579.579H5.209a.58.58,0,0,1-.579-.579V17.917a.58.58,0,0,1,.579-.579H22.572a.58.58,0,0,1,.579.579Zm0-6.945a.58.58,0,0,1-.579.579H5.209a.58.58,0,0,1-.579-.579V10.971a.58.58,0,0,1,.579-.579H22.572a.58.58,0,0,1,.579.579Z" transform="translate(6247.063 173.187)" fill="#f3c10f" stroke="#1e1e1e" stroke-width="1"/>
  </g>
</svg>
