<?xml version="1.0"?>
<svg xmlns="http://www.w3.org/2000/svg" id="filled_outline" height="512px" viewBox="0 0 64 64" width="512px" data-name="filled outline" class="hovered-paths"><g><rect fill="#fff" height="50" rx="5" transform="matrix(0 1 -1 0 66.5 2.5)" width="41" x="11.5" y="9.5" data-original="#FFF" class=""/><path d="m7 24v-5a5.006 5.006 0 0 1 5-5h40a5.006 5.006 0 0 1 5 5v5z" fill="#1394f6" data-original="#1394F6" class="" style="fill:#F3C10F" data-old_color="#1394f6"/><path d="m20 19a2 2 0 0 1 -2-2v-6a2 2 0 0 1 4 0v6a2 2 0 0 1 -2 2z" fill="#fff" data-original="#FFF" class=""/><path d="m44 19a2 2 0 0 1 -2-2v-6a2 2 0 0 1 4 0v6a2 2 0 0 1 -2 2z" fill="#fff" data-original="#FFF" class=""/><path d="m52 13h-5v-2a3 3 0 0 0 -6 0v2h-18v-2a3 3 0 0 0 -6 0v2h-5a6 6 0 0 0 -6 6v31a6 6 0 0 0 6 6h40a6 6 0 0 0 6-6v-31a6 6 0 0 0 -6-6zm-9-2a1 1 0 0 1 2 0v6a1 1 0 0 1 -2 0zm-24 0a1 1 0 0 1 2 0v6a1 1 0 0 1 -2 0zm-7 4h5v2a3 3 0 0 0 6 0v-2h18v2a3 3 0 0 0 6 0v-2h5a4 4 0 0 1 4 4v5h-48v-5a4 4 0 0 1 4-4zm40 39h-40a4 4 0 0 1 -4-4v-24h48v24a4 4 0 0 1 -4 4z" data-original="#000000" class="hovered-path active-path" style="fill:#000000"/></g> </svg>
