<svg xmlns="http://www.w3.org/2000/svg" width="38.786" height="15.629" viewBox="0 0 38.786 15.629">
  <g id="Group_3359" data-name="Group 3359" transform="translate(-913.231 -872.084)">
    <g id="Rectangle_925" data-name="Rectangle 925" transform="translate(913.231 872.084)" fill="none" stroke="#000" stroke-width="2">
      <rect width="38.786" height="15.629" rx="1" stroke="none"/>
      <rect x="1" y="1" width="36.786" height="13.629" fill="none"/>
    </g>
    <path id="Path_2050" data-name="Path 2050" d="M9.12-10.36l-.6-1.9L5.9-11.4v-2.76H3.86v2.76l-2.62-.94L.6-10.44l2.66.92L1.58-7.34,3.2-6.12l1.62-2.2L6.5-6.02,8.16-7.24,6.5-9.52Z" transform="translate(917 890)"/>
    <path id="Path_2049" data-name="Path 2049" d="M9.12-10.36l-.6-1.9L5.9-11.4v-2.76H3.86v2.76l-2.62-.94L.6-10.44l2.66.92L1.58-7.34,3.2-6.12l1.62-2.2L6.5-6.02,8.16-7.24,6.5-9.52Z" transform="translate(928 890)"/>
    <path id="Path_2048" data-name="Path 2048" d="M9.12-10.36l-.6-1.9L5.9-11.4v-2.76H3.86v2.76l-2.62-.94L.6-10.44l2.66.92L1.58-7.34,3.2-6.12l1.62-2.2L6.5-6.02,8.16-7.24,6.5-9.52Z" transform="translate(939 890)"/>
  </g>
</svg>
