<svg xmlns="http://www.w3.org/2000/svg" width="388.845" height="391.027" viewBox="0 0 388.845 391.027">
  <g id="Group_3332" data-name="Group 3332" transform="translate(-1312.578 -301)">
    <path id="Path_2047" data-name="Path 2047" d="M154.18,10.673c113.308-45.365,149.545,63.91,95.262,139.477S208.708,284.1,147.82,284.1s-42.871-37.412-119.25-91.2S40.873,56.039,154.18,10.673Z" transform="matrix(-0.809, -0.588, 0.588, -0.809, 1534.436, 692.027)" fill="#fff3ce"/>
    <g id="Group_3330" data-name="Group 3330" transform="translate(1429.872 420.391)">
      <path id="Rectangle_1148" data-name="Rectangle 1148" d="M0,0H103.21a0,0,0,0,1,0,0V83.828a10,10,0,0,1-10,10H10a10,10,0,0,1-10-10V0A0,0,0,0,1,0,0Z" transform="translate(0 45.35)" fill="#ffbf00"/>
      <g id="Rectangle_1152" data-name="Rectangle 1152" transform="translate(12.51 0)" fill="none" stroke="#ffbf00" stroke-width="15">
        <rect width="78.19" height="79.753" rx="20" stroke="none"/>
        <rect x="7.5" y="7.5" width="63.19" height="64.753" rx="12.5" fill="none"/>
      </g>
      <rect id="Rectangle_1149" data-name="Rectangle 1149" width="15.638" height="7.819" transform="translate(0 68.807)"/>
      <rect id="Rectangle_1150" data-name="Rectangle 1150" width="15.638" height="9.383" transform="translate(0 82.881)"/>
      <rect id="Rectangle_1151" data-name="Rectangle 1151" width="15.638" height="7.819" transform="translate(0 98.519)"/>
    </g>
    <ellipse id="Ellipse_796" data-name="Ellipse 796" cx="29.712" cy="29.712" rx="29.712" ry="29.712" transform="translate(1498.678 514.219)" fill="#49c0b6"/>
    <g id="Group_3331" data-name="Group 3331" transform="translate(550 -94)">
      <line id="Line_848" data-name="Line 848" x2="8.122" y2="8.122" transform="translate(978.784 623.846)" fill="none" stroke="#fff" stroke-linecap="round" stroke-width="5"/>
      <line id="Line_849" data-name="Line 849" x1="8.122" y2="8.121" transform="translate(970.662 623.846)" fill="none" stroke="#fff" stroke-linecap="round" stroke-width="5"/>
      <line id="Line_543" data-name="Line 543" y1="25" transform="translate(978.39 625.5)" fill="none" stroke="#fff" stroke-linecap="round" stroke-width="5"/>
    </g>
  </g>
</svg>
